<?xml version="1.0" encoding="utf-8"?>
<svg xmlns="http://www.w3.org/2000/svg" width="182" height="16" viewBox="0 0 182 16">
  <defs>
    <filter id="uio-inverse-oneline-a">
      <feColorMatrix in="SourceGraphic" values="0 0 0 0 1.000000 0 0 0 0 1.000000 0 0 0 0 1.000000 0 0 0 1.000000 0"/>
    </filter>
  </defs>
  <g fill="none" fill-rule="evenodd" filter="url(#uio-inverse-oneline-a)" transform="translate(-92 -299)">
    <g transform="translate(92 299)">
      <path fill="#1A1919" d="M48.6350769.279384615L48.6350769 7.67876923C48.6350769 9.45107692 49.2918974 10.304 50.9161026 10.304 52.5567179 10.304 53.2131282 9.46748718 53.2131282 7.67876923L53.2131282.279384615 55.6414359.279384615 55.6414359 7.94133333C55.6414359 10.8619487 53.9515897 12.4369231 50.9325128 12.4369231 47.8806154 12.4369231 46.1907692 10.8619487 46.1907692 7.94133333L46.1907692.279384615 48.6350769.279384615M57.6861538 3.39651282L59.9667692 3.39651282 59.9667692 4.43035897C60.6227692 3.5934359 61.5089231 3.16676923 62.6084103 3.16676923 64.528 3.16676923 65.4797949 4.16779487 65.4797949 6.1694359L65.4797949 12.1091282 63.1495385 12.1091282 63.1495385 6.84225641C63.1495385 5.66071795 62.8053333 5.10276923 61.8043077 5.10276923 60.7212308 5.10276923 60.016 5.792 60.016 6.94071795L60.016 12.1091282 57.6861538 12.1091282 57.6861538 3.39651282M67.3628718 12.1087179L69.6927179 12.1087179 69.6927179 3.39651282 67.3628718 3.39651282 67.3628718 12.1087179zM67.3628718 2.42830769L69.6927179 2.42830769 69.6927179.311794872 67.3628718.311794872 67.3628718 2.42830769z"/>
      <polyline fill="#1A1919" points="70.66 3.397 73.236 3.397 75.024 9.648 76.829 3.397 79.29 3.397 76.173 12.109 73.794 12.109 70.66 3.397"/>
      <path fill="#1A1919" d="M85.3587692 6.84225641C85.326359 5.66071795 84.7191795 5.03712821 83.6361026 5.03712821 82.6350769 5.03712821 82.0283077 5.66071795 81.9298462 6.84225641L85.3587692 6.84225641zM87.6557949 9.46748718C87.1803077 11.2886154 85.6869744 12.4041026 83.6196923 12.4041026 81.1421538 12.4041026 79.5179487 10.6322051 79.5179487 7.69517949 79.5179487 4.84061538 81.0765128 3.08512821 83.5868718 3.08512821 86.2449231 3.08512821 87.7710769 4.7585641 87.7710769 7.76082051 87.7710769 7.95774359 87.7710769 8.15466667 87.7546667 8.368L81.9298462 8.368C81.9954872 9.73005128 82.6022564 10.4356923 83.7345641 10.4356923 84.5222564 10.4356923 85.0305641 10.1398974 85.326359 9.46748718L87.6557949 9.46748718 87.6557949 9.46748718zM89.2291282 3.39651282L91.3952821 3.39651282 91.3952821 4.8894359C92.0020513 3.69189744 92.7897436 3.15035897 93.9052308 3.15035897 94.0201026 3.15035897 94.1349744 3.15035897 94.2502564 3.16676923L94.2502564 5.52984615 93.4789744 5.52984615C92.2153846 5.52984615 91.5589744 6.18584615 91.5589744 7.49825641L91.5589744 12.1091282 89.2291282 12.1091282 89.2291282 3.39651282M97.2697436 9.2705641C97.3025641 10.1563077 97.8929231 10.5829744 99.0908718 10.5829744 100.026256 10.5829744 100.518154 10.2547692 100.518154 9.71364103 100.518154 8.95876923 99.7632821 9.008 98.2211282 8.61415385 96.1702564 8.08902564 95.2024615 7.46584615 95.2024615 5.98892308 95.2024615 4.2334359 96.5476923 3.08512821 98.7790769 3.08512821 101.125333 3.08512821 102.503795 4.18420513 102.585846 6.0545641L100.321231 6.0545641C100.28841 5.31651282 99.7472821 4.8894359 98.7954872 4.8894359 97.9093333 4.8894359 97.4826667 5.15241026 97.4826667 5.69353846 97.4826667 6.30071795 98.2047179 6.36635897 99.8621538 6.76020513 101.880205 7.23610256 102.864821 7.79364103 102.864821 9.36902564 102.864821 11.3378462 101.453538 12.4041026 98.7790769 12.4041026 96.3507692 12.4041026 94.9398974 11.2393846 94.9398974 9.36902564 94.9398974 9.33620513 94.9398974 9.30338462 94.9398974 9.2705641L97.2697436 9.2705641M104.329436 12.1087179L106.659282 12.1087179 106.659282 3.39651282 104.329436 3.39651282 104.329436 12.1087179zM104.329436 2.42830769L106.659282 2.42830769 106.659282.311794872 104.329436.311794872 104.329436 2.42830769zM111.196718 12.2235897C109.276718 12.2235897 108.866462 11.5675897 108.866462 9.74605128L108.866462 5.03712821 107.718564 5.03712821 107.718564 3.39651282 108.866462 3.39651282 108.866462 1.0174359 111.180308 1.0174359 111.180308 3.39651282 112.525538 3.39651282 112.525538 5.03712821 111.180308 5.03712821 111.180308 9.86133333C111.180308 10.3204103 111.32759 10.4188718 111.95159 10.4188718L112.525538 10.4188718 112.525538 12.1747692C111.885949 12.1911795 111.442872 12.2235897 111.196718 12.2235897M114.444308 13.7169231C114.657641 13.7497436 114.854564 13.7497436 114.985846 13.7497436 115.904821 13.7497436 116.364308 13.3230769 116.364308 12.4533333 116.364308 12.3876923 116.347897 12.2892308 116.315077 12.2071795L113.181128 3.39651282 115.740308 3.39651282 117.578256 9.68082051 119.366564 3.39651282 121.811282 3.39651282 118.234256 13.6676923C117.725949 15.1446154 117.102769 15.6693333 115.428923 15.6693333 115.182769 15.6693333 114.854564 15.6529231 114.444308 15.6041026L114.444308 13.7169231M131.543385 10.4516923C132.839385 10.4516923 133.577846 9.48389744 133.577846 7.74441026 133.577846 6.00533333 132.839385 5.05353846 131.543385 5.05353846 130.246974 5.05353846 129.492513 6.00533333 129.492513 7.74441026 129.492513 9.48389744 130.246974 10.4516923 131.543385 10.4516923zM131.543385 3.08512821C134.283487 3.08512821 135.956923 4.84061538 135.956923 7.74441026 135.956923 10.6486154 134.283487 12.4041026 131.543385 12.4041026 128.803282 12.4041026 127.129436 10.6486154 127.129436 7.74441026 127.129436 4.84061538 128.803282 3.08512821 131.543385 3.08512821L131.543385 3.08512821zM137.749744 5.03712821L136.502564 5.03712821 136.502564 3.39651282 137.749744 3.39651282 137.749744 2.59241026C137.749744.951794872 138.570256.230153846 140.358154.230153846 140.702769.230153846 141.063795.246153846 141.474051.279384615L141.474051 2.13333333 140.866872 2.13333333C140.227282 2.13333333 140.013538 2.23138462 140.013538 2.78933333L140.013538 3.39651282 141.474051 3.39651282 141.474051 5.03712821 140.029949 5.03712821 140.029949 12.1091282 137.749744 12.1091282 137.749744 5.03712821M152.764308 10.3204103C154.832 10.3204103 156.078769 8.84389744 156.078769 6.21866667 156.078769 3.5934359 154.832 2.11692308 152.764308 2.11692308 150.713026 2.11692308 149.482667 3.5934359 149.482667 6.21866667 149.482667 8.84389744 150.713026 10.3204103 152.764308 10.3204103zM152.764308-1.45752356e-15C156.291692-1.45752356e-15 158.539897 2.41189744 158.539897 6.21866667 158.539897 10.0250256 156.291692 12.4369231 152.764308 12.4369231 149.236923 12.4369231 147.005128 10.0250256 147.005128 6.21866667 147.005128 2.41189744 149.236923-1.45752356e-15 152.764308-1.45752356e-15L152.764308-1.45752356e-15zM161.974154 9.2705641C162.006974 10.1563077 162.597333 10.5829744 163.795282 10.5829744 164.730256 10.5829744 165.222974 10.2547692 165.222974 9.71364103 165.222974 8.95876923 164.468103 9.008 162.925538 8.61415385 160.874667 8.08902564 159.906872 7.46584615 159.906872 5.98892308 159.906872 4.2334359 161.252103 3.08512821 163.483487 3.08512821 165.829744 3.08512821 167.207795 4.18420513 167.290256 6.0545641L165.025641 6.0545641C164.992821 5.31651282 164.451692 4.8894359 163.499487 4.8894359 162.613744 4.8894359 162.187077 5.15241026 162.187077 5.69353846 162.187077 6.30071795 162.909128 6.36635897 164.566154 6.76020513 166.584615 7.23610256 167.568821 7.79364103 167.568821 9.36902564 167.568821 11.3378462 166.157949 12.4041026 163.483487 12.4041026 161.054769 12.4041026 159.643897 11.2393846 159.643897 9.36902564 159.643897 9.33620513 159.643897 9.30338462 159.643897 9.2705641L161.974154 9.2705641"/>
      <polygon fill="#1A1919" points="169.05 12.109 171.38 12.109 171.38 .312 169.05 .312"/>
      <path fill="#1A1919" d="M177.279179,10.4516923 C178.57559,10.4516923 179.313641,9.48389744 179.313641,7.74441026 C179.313641,6.00533333 178.57559,5.05353846 177.279179,5.05353846 C175.982769,5.05353846 175.228308,6.00533333 175.228308,7.74441026 C175.228308,9.48389744 175.982769,10.4516923 177.279179,10.4516923 Z M177.279179,3.08512821 C180.019282,3.08512821 181.692718,4.84061538 181.692718,7.74441026 C181.692718,10.6486154 180.019282,12.4041026 177.279179,12.4041026 C174.539487,12.4041026 172.865641,10.6486154 172.865641,7.74441026 C172.865641,4.84061538 174.539487,3.08512821 177.279179,3.08512821 L177.279179,3.08512821 Z"/>
      <path fill="#D8232A" d="M40.3224615 2.31876923C40.3622564 2.50707692 40.3852308 2.70769231 40.3852308 2.90830769 40.3852308 4.41066667 39.1667692 5.62584615 37.6676923 5.62584615 36.1669744 5.62584615 34.9489231 4.41066667 34.9489231 2.90830769 34.9489231 1.40594872 36.1669744.188307692 37.6676923.188307692 38.9661538.188307692 40.0500513 1.09989744 40.3224615 2.31876923M40.3224615 8.97107692C40.3622564 9.16020513 40.3852308 9.35917949 40.3852308 9.5614359 40.3852308 11.0633846 39.1667692 12.2822564 37.6676923 12.2822564 36.1669744 12.2822564 34.9489231 11.0633846 34.9489231 9.5614359 34.9489231 8.05948718 36.1669744 6.84348718 37.6676923 6.84348718 38.9661538 6.84348718 40.0500513 7.75384615 40.3224615 8.97107692"/>
      <path fill="#1A1919" d="M10.7253333,7.88512821 C10.7253333,8.69620513 10.6297436,9.38297436 10.4385641,9.94584615 C10.2461538,10.5095385 9.95405128,10.9653333 9.55979487,11.3144615 C9.16594872,11.6644103 8.67364103,11.9163077 8.08164103,12.0742564 C7.49128205,12.2313846 6.78974359,12.3097436 5.97989744,12.3097436 C5.29189744,12.3097436 4.66420513,12.2350769 4.096,12.0832821 C3.5265641,11.9306667 3.03958974,11.6857436 2.63466667,11.3481026 C2.22892308,11.0104615 1.91384615,10.5714872 1.68902564,10.032 C1.46338462,9.48964103 1.35097436,8.82502564 1.35097436,8.03774359 L1.35097436,1.04492308 L0,0.791794872 L0,0.284307692 L4.18830769,0.284307692 L4.18830769,0.791794872 L2.83733333,1.04492308 L2.83733333,8.59487179 C2.83733333,9.52902564 3.13025641,10.2642051 3.71528205,10.8 C4.30112821,11.3337436 5.16225641,11.601641 6.29989744,11.601641 C7.49374359,11.601641 8.35733333,11.3247179 8.89230769,10.7725128 C9.42728205,10.2219487 9.69517949,9.35015385 9.69517949,8.15589744 L9.69517949,1.04492308 L8.34420513,0.791794872 L8.34420513,0.284307692 L12.0763077,0.284307692 L12.0763077,0.791794872 L10.7253333,1.04492308 L10.7253333,7.88512821"/>
      <polyline fill="#1A1919" points="15.815 4.844 15.815 11.348 17.166 11.602 17.166 12.108 13.163 12.108 13.163 11.602 14.514 11.348 14.514 4.676 13.163 4.169 13.163 3.882 15.815 3.46 15.883 3.495 15.815 4.844"/>
      <path fill="#1A1919" d="M27.1577436 2.12553846C26.481641 1.23610256 25.5302564.791794872 24.3031795.791794872 23.0527179.791794872 22.0910769 1.22174359 21.4145641 2.08287179 20.7384615 2.94523077 20.401641 4.29866667 20.401641 6.14564103 20.401641 8.01476923 20.7331282 9.392 21.3977436 10.2748718 22.062359 11.1597949 23.0186667 11.601641 24.2695385 11.601641 25.5195897 11.601641 26.481641 11.1688205 27.1577436 10.3007179 27.8330256 9.43384615 28.1710769 8.08287179 28.1710769 6.24697436 28.1710769 4.38892308 27.8330256 3.01497436 27.1577436 2.12553846zM28.3737436 10.7409231C27.393641 11.7870769 26.0032821 12.3097436 24.2018462 12.3097436 22.4791795 12.3097436 21.1351795 11.8014359 20.1731282 10.782359 19.2102564 9.76328205 18.7290256 8.26871795 18.7290256 6.29784615 18.7290256 5.27302564 18.8607179 4.37210256 19.1261538 3.59507692 19.390359 2.81846154 19.7645128 2.17025641 20.2494359 1.65251282 20.7331282 1.13353846 21.3218462.743794872 22.014359.479179487 22.7068718.214564103 23.4810256.0816410256 24.3364103.0816410256 25.1930256.0816410256 25.9606154.211692308 26.6420513.46974359 27.3230769.729435897 27.9007179 1.11425641 28.3737436 1.62748718 28.8459487 2.14030769 29.2098462 2.77292308 29.4633846 3.52738462 29.7165128 4.28225641 29.8428718 5.15569231 29.8428718 6.14564103 29.8428718 8.16082051 29.3534359 9.69353846 28.3737436 10.7409231L28.3737436 10.7409231zM14.336.975179487C14.336 1.22215385 14.417641 1.42810256 14.5809231 1.59097436 14.7437949 1.75466667 14.9497436 1.83589744 15.1971282 1.83589744 15.4449231 1.83589744 15.6537436 1.75466667 15.822359 1.59097436 15.9913846 1.42810256 16.0758974 1.22215385 16.0758974.975179487 16.0758974.727794872 15.9913846.518564103 15.822359.349538462 15.6537436.179692308 15.4449231.0968205128 15.1971282.0968205128 14.9497436.0968205128 14.7437949.179692308 14.5809231.349538462 14.417641.518564103 14.336.727794872 14.336.975179487"/>
    </g>
  </g>
</svg>
